<svg width="923" height="935" viewBox="0 0 923 935" fill="none" xmlns="http://www.w3.org/2000/svg">
<g opacity="0.6" filter="url(#filter0_f_161_878)">
<path fill-rule="evenodd" clip-rule="evenodd" d="M513.865 86.5688C552.415 64.131 602.826 34.5856 642.649 54.6781C684.55 75.8192 669.901 146.577 701.527 181.253C729.573 212.004 781.745 209.516 810.931 239.188C841.521 270.287 887.233 313.321 871.422 353.977C850.647 407.392 751.768 395.648 729.535 448.473C710.907 492.734 791.094 538.91 774.607 584.013C760.785 621.829 696.672 605.973 663.581 628.909C628.448 653.26 618.51 714.317 576.359 721.423C533.856 728.588 504.48 671.808 462.322 662.837C421.437 654.136 378.955 680.217 338.241 670.751C295.002 660.699 240.897 647.521 222.555 607.096C202.421 562.719 242.605 512.494 244.344 463.795C245.587 428.959 235.814 395.5 231.345 360.93C226.018 319.721 203.817 278.355 215.207 238.395C226.421 199.051 253.583 155.904 292.953 144.781C339.28 131.692 385.92 189.277 432.472 177.01C472.028 166.587 478.511 107.146 513.865 86.5688Z" fill="#FFDD33"/>
</g>
<defs>
<filter id="filter0_f_161_878" x="0" y="-164" width="1086.66" height="1098.05" filterUnits="userSpaceOnUse" color-interpolation-filters="sRGB">
<feFlood flood-opacity="0" result="BackgroundImageFix"/>
<feBlend mode="normal" in="SourceGraphic" in2="BackgroundImageFix" result="shape"/>
<feGaussianBlur stdDeviation="106" result="effect1_foregroundBlur_161_878"/>
</filter>
</defs>
</svg>
